<svg version="1.2" xmlns="http://www.w3.org/2000/svg" viewBox="0 0 212 212" width="212" height="212">
	<title>32701</title>
	<style>
		.s0 { fill: #000000 } 
		.s1 { fill: #f6f6f6 } 
		.s2 { fill: #d99f9c } 
	</style>
	<g id="&lt;Group&gt;">
		<path id="&lt;Path&gt;" class="s0" d="m59.4 56.6c2.5-5.7 9.3-7.9 14.5-10.3 14.9-6.9 29.9-13.3 44.9-19.8q1.7-0.7 3.3-1.4 0.1 0 0.2 0 0.1-0.1 0.2-0.1c3.7-1.3 8-1.7 11.8-1.1 7.6 1.1 12.4 6.5 14.1 13.7 1.5 6.6 1.5 13.9 2.4 20.6 1.2 8.8 2.6 17.5 3.9 26.3 3.1 19.6 6.2 39.2 8.4 58.9 0.9 7.7 1.7 15.6 1.8 23.4 0 4.2 0.2 9.3-1.8 13.1-2.6 4.8-9.4 7.6-14.1 9.6-8.1 3.3-17.1 5.4-25.9 4.9-8.5-0.6-16.6-4.2-20.8-11.9-3.4-6.1-5.3-13.5-7.7-20-11.8-31.8-23.2-63.7-34.7-95.6-1.2-3.4-2-6.7-0.5-10.3z"/>
		<path id="&lt;Path&gt;" class="s0" d="m36.2 62.8c7.4-2.9 15.7-4.7 23.7-4.7 1.1-0.2 3 0.1 3.1 0.7 0.5 14.9-3.1 31.1-17.5 38.4-9 4.6-19.8 4.9-29.6 3.6-2.6-0.4-5.1-0.8-7.6-1.5-0.2 0-0.9-0.2-0.9-0.5 2.7-16.8 13-29.7 28.8-36z"/>
		<path id="&lt;Path&gt;" class="s0" d="m137.3 23.6c13.1-10.7 29.5-14.2 45.7-8.9 8.2 2.7 16.3 7.1 22.7 12.9q0.1 0.2 0.2 0.3 0.1 0.1 0.1 0.2 0 0 0 0.1 0 0 0 0c0 0.3-0.1 0.6-0.4 0.9-11.8 14.2-28.7 24.2-46.9 15.7-8.7-4.1-16.6-11.4-21.7-19.5-0.4-0.6-0.3-1.3 0.3-1.7z"/>
		<path id="&lt;Path&gt;" class="s1" d="m140.2 60.2c3-0.1 3.5 2.7 3.5 5.1 0 2.4-0.4 5.1-3.2 5.4-3.2 0.3-3.6-2.5-3.7-5.1 0.1-2.6 0.4-5.2 3.4-5.4z"/>
		<path id="&lt;Path&gt;" class="s1" d="m94.2 73.7c3 0.1 3 3.6 3 5.9 0 2.2 0.1 5.7-2.8 5.8-3.3 0.1-3.2-3.5-3.3-5.9 0.1-2.3 0-6 3.1-5.8z"/>
		<path id="&lt;Path&gt;" class="s1" d="m84.2 41.4q7.6-3.8 15.3-7.4c5.4-2.5 10.8-4.9 16.4-7.1 2.5-0.9 9.4-4.6 10.6-0.7q0.1 0.1 0 0.2 0.1 18 0.1 35.9 0.1 11.7 0.1 23.4c0 2.7 1.2 8.6-1.3 10.4-4.2 2.9-6.6-1.4-9.1-4.1q-7.5-8.4-15-16.7-8.3-9.3-16.7-18.5c-2.4-2.7-6.1-5.6-7.8-8.8-1.9-3.4 5.2-5.5 7.4-6.6z"/>
		<path id="&lt;Path&gt;" class="s2" d="m115 171.5c5.6-9.9 22-10.5 31.7-10.9q0 0 0 0 0.3-0.1 0.6 0c6.5 2 12.3 7.6 11.1 14.9-1.4 8.4-12.6 11.6-19.6 13.1-6.3 1.3-17.7 3-22.8-2.4-3.2-3.4-3.2-10.8-1-14.7z"/>
		<path id="&lt;Path&gt;" class="s0" d="m147.2 173.4c2.3 0.2 3.3 2.6 3.3 4.6-0.1 1.9-1.2 4.2-3.3 4.1-2.5 0-3.4-2.6-3.5-4.6 0.1-2 1.2-4.4 3.5-4.1z"/>
		<path id="&lt;Path&gt;" class="s0" d="m127.4 177.6c2.2-0.3 3.2 1.7 3.2 3.6 0 2.1-1.2 4-3.3 4.3-2.3 0.3-3.3-1.7-3.4-3.6 0.1-2.1 1.3-4 3.5-4.3z"/>
		<path id="&lt;Path&gt;" class="s2" d="m120.2 194c0.1-0.3 0.5-0.4 0.7-0.4 12.3-0.5 27.4-2.2 37.4-9.9q0.1-0.1 0.4-0.2 0 0 0 0c0.7-0.1 1.9 0.4 1.7 1-2.7 9-14.6 12.9-22.7 14.2-2.6 0.4-19.1 2.6-17.5-4.7z"/>
	</g>
</svg>